# xmcd
#
# Track frame offsets:
# 150
# 19500
# 36682
# 53487
# 70542
# 86285
# 103425
# 118850
# 133020
# 149045
# 164690
# 179692
# 196737
# 214102
#
# Disc length: 3022 seconds
#
#
# Revision: 0
# Processed by: cddbd v1.5.2PL0 Copyright (c) Steve Scherf et al.
# Submitted via: FreeRIP 2.60 
#
DISCID=d30bcc0e
DTITLE=Various Artist - A Tribute To Fathers
DYEAR=1900
DGENRE=Country
TTITLE0=Leader Of The Bank - Dan Fogelberg
TTITLE1=Fathers And Sons - Charlie Daniels
TTITLE2=The Walk - Sawyer Brown
TTITLE3=Daddy's Little Man - Shenandoah
TTITLE4=Daddy's Hands - Holly Dunn
TTITLE5=Hands Of A Working Man - Ty Herndon
TTITLE6=Seein' My Father In Me - Paul Overstreet
TTITLE7=Watchin' Scotty Grow - Mac Davis
TTITLE8=Father Knows Best - RIcky Skaggs
TTITLE9=I Think About You - Collin Raye
TTITLE10=Almost Home - Joe Diffie
TTITLE11=I Don't Call Him Daddy - Doug Supernaw
TTITLE12=Keep It Between The Lines - Ricky Van Shelton
TTITLE13=Daddy What If - Bobby Bare
EXTD=
EXTT0=
EXTT1=
EXTT2=
EXTT3=
EXTT4=
EXTT5=
EXTT6=
EXTT7=
EXTT8=
EXTT9=
EXTT10=
EXTT11=
EXTT12=
EXTT13=
PLAYORDER=
